<mxfile host="app.diagrams.net" modified="2022-04-18T03:55:53.525Z" agent="5.0 (Windows NT 10.0; Win64; x64) AppleWebKit/537.36 (KHTML, like Gecko) Chrome/100.0.4896.88 Safari/537.36" etag="Yr_8356DhQ1DD-FlYppT" version="17.4.3" type="github">
  <diagram id="Uc_7oqcD5Ny5fzvCNf-f" name="Page-1">
    <mxGraphModel dx="2044" dy="1243" grid="1" gridSize="10" guides="1" tooltips="1" connect="1" arrows="1" fold="1" page="1" pageScale="1" pageWidth="1600" pageHeight="900" math="0" shadow="0">
      <root>
        <mxCell id="0" />
        <mxCell id="1" parent="0" />
      </root>
    </mxGraphModel>
  </diagram>
</mxfile>
